<svg xmlns="http://www.w3.org/2000/svg" width="600" height="260">
<style>.title{font:bold 20px sans-serif;fill:#eceff4;}.legend{font:13px sans-serif;fill:#eceff4;}.percent{font:13px monospace;fill:#eceff4;}</style>
<rect width="100%" height="100%" fill="#2e3440" rx="16" />
<text x="24" y="32" class="title">Top Languages – h4m1dr</text>
<circle cx="150" cy="140" r="50" stroke="#3b4252" stroke-width="24" fill="none" />
<circle cx="150" cy="140" r="50" fill="none" stroke="#5e81ac" stroke-width="24" stroke-dasharray="148.37 165.79" stroke-dashoffset="-78.54" stroke-linecap="round" />
<circle cx="150" cy="140" r="50" fill="none" stroke="#a3be8c" stroke-width="24" stroke-dasharray="120.69 193.47" stroke-dashoffset="-226.91" stroke-linecap="round" />
<circle cx="150" cy="140" r="50" fill="none" stroke="#ebcb8b" stroke-width="24" stroke-dasharray="24.41 289.75" stroke-dashoffset="-347.60" stroke-linecap="round" />
<circle cx="150" cy="140" r="50" fill="none" stroke="#bf616a" stroke-width="24" stroke-dasharray="17.52 296.64" stroke-dashoffset="-372.01" stroke-linecap="round" />
<circle cx="150" cy="140" r="50" fill="none" stroke="#b48ead" stroke-width="24" stroke-dasharray="3.16 311.00" stroke-dashoffset="-389.53" stroke-linecap="round" />
<circle cx="150" cy="140" r="42.0" fill="#2e3440" />
<rect x="250" y="68" width="14" height="14" rx="3" fill="#5e81ac" />
<text x="272" y="80" class="legend">Shell</text>
<text x="410" y="80" class="percent">47.2%</text>
<rect x="250" y="92" width="14" height="14" rx="3" fill="#a3be8c" />
<text x="272" y="104" class="legend">Python</text>
<text x="410" y="104" class="percent">38.4%</text>
<rect x="250" y="116" width="14" height="14" rx="3" fill="#ebcb8b" />
<text x="272" y="128" class="legend">TypeScript</text>
<text x="410" y="128" class="percent">7.8%</text>
<rect x="250" y="140" width="14" height="14" rx="3" fill="#bf616a" />
<text x="272" y="152" class="legend">JavaScript</text>
<text x="410" y="152" class="percent">5.6%</text>
<rect x="250" y="164" width="14" height="14" rx="3" fill="#b48ead" />
<text x="272" y="176" class="legend">HTML</text>
<text x="410" y="176" class="percent">1.0%</text>
</svg>