<svg xmlns="http://www.w3.org/2000/svg" width="600" height="260">
<style>.title{font:bold 20px sans-serif;fill:#eceff4;}.legend{font:13px sans-serif;fill:#eceff4;}.percent{font:13px monospace;fill:#eceff4;}</style>
<rect width="100%" height="100%" fill="#2e3440" rx="16" />
<text x="24" y="32" class="title">Top Languages – h4m1dr</text>
<circle cx="150" cy="140" r="50" stroke="#3b4252" stroke-width="24" fill="none" />
<circle cx="150" cy="140" r="50" fill="none" stroke="#5e81ac" stroke-width="24" stroke-dasharray="141.55 172.61" stroke-dashoffset="-78.54" stroke-linecap="round" />
<circle cx="150" cy="140" r="50" fill="none" stroke="#a3be8c" stroke-width="24" stroke-dasharray="115.14 199.02" stroke-dashoffset="-220.09" stroke-linecap="round" />
<circle cx="150" cy="140" r="50" fill="none" stroke="#ebcb8b" stroke-width="24" stroke-dasharray="31.16 283.00" stroke-dashoffset="-335.23" stroke-linecap="round" />
<circle cx="150" cy="140" r="50" fill="none" stroke="#bf616a" stroke-width="24" stroke-dasharray="23.29 290.87" stroke-dashoffset="-366.39" stroke-linecap="round" />
<circle cx="150" cy="140" r="50" fill="none" stroke="#b48ead" stroke-width="24" stroke-dasharray="3.02 311.14" stroke-dashoffset="-389.68" stroke-linecap="round" />
<circle cx="150" cy="140" r="42.0" fill="#2e3440" />
<rect x="250" y="68" width="14" height="14" rx="3" fill="#5e81ac" />
<text x="272" y="80" class="legend">Shell</text>
<text x="410" y="80" class="percent">45.1%</text>
<rect x="250" y="92" width="14" height="14" rx="3" fill="#a3be8c" />
<text x="272" y="104" class="legend">Python</text>
<text x="410" y="104" class="percent">36.7%</text>
<rect x="250" y="116" width="14" height="14" rx="3" fill="#ebcb8b" />
<text x="272" y="128" class="legend">JavaScript</text>
<text x="410" y="128" class="percent">9.9%</text>
<rect x="250" y="140" width="14" height="14" rx="3" fill="#bf616a" />
<text x="272" y="152" class="legend">TypeScript</text>
<text x="410" y="152" class="percent">7.4%</text>
<rect x="250" y="164" width="14" height="14" rx="3" fill="#b48ead" />
<text x="272" y="176" class="legend">HTML</text>
<text x="410" y="176" class="percent">1.0%</text>
</svg>